<svg xmlns="http://www.w3.org/2000/svg" width="80" height="60" viewBox="0 0 99 67" fill="none">
    <g clip-path="url(#clip0_8506_26274)">
        <path
            d="M9.07162 28.6478H7.77539V58.3875H19.4371V57.094H9.07162V55.8026H19.4371V54.5091H9.07162V53.2156H19.4371V51.9221H9.07162V28.6478Z"
            fill="#9D5088" />
        <path d="M6.47982 28.6478H5.18359V58.3875H6.47982V28.6478Z" fill="#9D5088" />
        <path d="M1.29623 28.6478H0V58.3875H1.29623V28.6478Z" fill="#9D5088" />
        <path d="M3.88802 28.6478H2.5918V58.3875H3.88802V28.6478Z" fill="#9D5088" />
        <path
            d="M41.1328 37.5736C40.3761 36.8207 39.4797 36.22 38.4436 35.7781C37.4053 35.3362 36.3154 35.1132 35.1761 35.1132C34.0368 35.1132 32.947 35.3362 31.9109 35.7781C30.8726 36.22 29.9762 36.8207 29.2195 37.5736C28.4629 38.3287 27.8631 39.2232 27.4203 40.2592C26.9775 41.2953 26.7539 42.3808 26.7539 43.5198C26.7539 44.6588 26.9753 45.7443 27.4203 46.7803C27.8631 47.8164 28.465 48.7109 29.2195 49.4639C29.9762 50.2189 30.8726 50.8174 31.9109 51.2615C32.9491 51.7034 34.0368 51.9243 35.1761 51.9243C36.3154 51.9243 37.4053 51.7034 38.4436 51.2615C39.4818 50.8196 40.3782 50.2189 41.1328 49.4639C41.8894 48.7109 42.4892 47.8143 42.932 46.7803C43.3748 45.7443 43.5984 44.6567 43.5984 43.5198C43.5984 42.3829 43.377 41.2953 42.932 40.2592C42.4892 39.2232 41.8873 38.3287 41.1328 37.5736ZM40.2149 48.5479C38.8219 49.9379 37.1431 50.6308 35.1761 50.6308C33.2092 50.6308 31.5282 49.9358 30.1374 48.5479C28.7445 47.1579 28.0501 45.4826 28.0501 43.5198C28.0501 41.557 28.7466 39.8796 30.1374 38.4917C31.5304 37.1017 33.2092 36.4088 35.1761 36.4088C37.1431 36.4088 38.8241 37.1038 40.2149 38.4917C41.6078 39.8817 42.3022 41.557 42.3022 43.5198C42.3022 45.4826 41.6057 47.16 40.2149 48.5479Z"
            fill="#9D5088" />
        <path
            d="M40.7011 33.9999C39.0094 33.0195 37.1672 32.5283 35.1766 32.5283C33.186 32.5283 31.3438 33.0195 29.6521 33.9999C27.9603 34.9802 26.6232 36.3166 25.6387 38.0048C24.6542 39.6929 24.1641 41.5292 24.1641 43.5177C24.1641 45.5062 24.6563 47.3424 25.6387 49.0306C26.6232 50.7188 27.9603 52.053 29.6521 53.0355C31.3438 54.0158 33.186 54.507 35.1766 54.507C37.1672 54.507 39.0094 54.0158 40.7011 53.0355C42.3929 52.053 43.73 50.7188 44.7145 49.0306C45.6969 47.3424 46.1891 45.5062 46.1891 43.5177C46.1891 41.5292 45.6969 39.6929 44.7145 38.0048C43.73 36.3166 42.3929 34.9802 40.7011 33.9999ZM43.5902 48.3849C42.7196 49.8693 41.5416 51.0448 40.0541 51.9136C38.5666 52.7823 36.9414 53.2156 35.1766 53.2156C33.4118 53.2156 31.7866 52.7823 30.2991 51.9136C28.8116 51.0448 27.6336 49.8693 26.763 48.3849C25.8924 46.9005 25.4581 45.2766 25.4581 43.5177C25.4581 41.7587 25.8924 40.1348 26.763 38.6504C27.6336 37.166 28.8116 35.9905 30.2991 35.1217C31.7866 34.253 33.4118 33.8197 35.1766 33.8197C36.9414 33.8197 38.5666 34.253 40.0541 35.1217C41.5416 35.9905 42.7196 37.166 43.5902 38.6504C44.4608 40.1348 44.8951 41.7565 44.8951 43.5177C44.8951 45.2788 44.4608 46.9005 43.5902 48.3849Z"
            fill="#9D5088" />
        <path
            d="M41.9982 31.7646C39.9109 30.5483 37.6366 29.9413 35.1775 29.9413C32.7183 29.9413 30.444 30.5505 28.3567 31.7646C26.2694 32.9809 24.6163 34.6283 23.3975 36.7134C22.1787 38.7962 21.5703 41.0658 21.5703 43.5198C21.5703 45.9737 22.1787 48.2433 23.3975 50.3262C24.6142 52.409 26.2672 54.0586 28.3567 55.2749C30.444 56.4912 32.7183 57.0982 35.1775 57.0982C37.6366 57.0982 39.9109 56.4912 41.9982 55.2749C44.0855 54.0586 45.7386 52.4112 46.9574 50.3262C48.1762 48.2433 48.7846 45.9737 48.7846 43.5198C48.7846 41.0658 48.1762 38.7962 46.9574 36.7134C45.7386 34.6305 44.0877 32.9809 41.9982 31.7646ZM46.5167 48.2947C45.8697 49.8156 44.9969 51.1241 43.8985 52.2203C42.8 53.3164 41.4888 54.1873 39.9668 54.833C38.4427 55.4787 36.8477 55.8026 35.1796 55.8026C33.5115 55.8026 31.9165 55.4787 30.3924 54.833C28.8683 54.1873 27.557 53.3164 26.4607 52.2203C25.3623 51.1241 24.4895 49.8156 23.8425 48.2947C23.1954 46.776 22.8708 45.1822 22.8708 43.5176C22.8708 41.853 23.1954 40.2614 23.8425 38.7405C24.4895 37.2196 25.3623 35.9111 26.4607 34.8149C27.557 33.7188 28.8683 32.8479 30.3924 32.2022C31.9165 31.5544 33.5115 31.2326 35.1796 31.2326C36.8477 31.2326 38.4427 31.5565 39.9668 32.2022C41.4909 32.8479 42.8022 33.7188 43.8985 34.8149C44.9969 35.9111 45.8697 37.2196 46.5167 38.7405C47.1638 40.2592 47.4884 41.853 47.4884 43.5176C47.4884 45.1822 47.1638 46.7739 46.5167 48.2947Z"
            fill="#9D5088" />
        <path
            d="M46.6313 32.0864C45.1846 30.6428 43.4628 29.4951 41.4658 28.6371C39.4688 27.7812 37.3707 27.3522 35.176 27.3522C32.9812 27.3522 30.8832 27.7812 28.8861 28.6371C26.8891 29.493 25.1673 30.6428 23.7206 32.0864C22.2739 33.5301 21.1238 35.2461 20.2661 37.2411C19.4084 39.236 18.9785 41.3275 18.9785 43.5176C18.9785 45.7078 19.4084 47.8014 20.2661 49.7942C21.1238 51.787 22.276 53.5074 23.7206 54.9489C25.1673 56.3925 26.8891 57.5401 28.8861 58.3982C30.8832 59.2541 32.9812 59.6831 35.176 59.6831C37.3707 59.6831 39.4688 59.2541 41.4658 58.3982C43.4628 57.5423 45.1846 56.3925 46.6313 54.9489C48.078 53.5052 49.2281 51.787 50.0879 49.7942C50.9456 47.8014 51.3755 45.7099 51.3755 43.5176C51.3755 41.3253 50.9456 39.2339 50.0879 37.2411C49.2302 35.2483 48.078 33.5301 46.6313 32.0864ZM48.8992 49.2922C48.1146 51.1284 47.0548 52.7137 45.722 54.0415C44.3914 55.3693 42.8028 56.4268 40.9627 57.2119C39.1205 57.997 37.1923 58.3875 35.176 58.3875C33.1596 58.3875 31.2314 57.9949 29.3892 57.2119C27.5469 56.429 25.9605 55.3714 24.6299 54.0415C23.2971 52.7137 22.2395 51.1284 21.4527 49.2922C20.666 47.4539 20.2747 45.5297 20.2747 43.5176C20.2747 41.5055 20.6681 39.5814 21.4527 37.743C22.2374 35.9068 23.2971 34.3216 24.6299 32.9938C25.9627 31.6638 27.5491 30.6084 29.3892 29.8233C31.2314 29.0382 33.1596 28.6478 35.176 28.6478C37.1923 28.6478 39.1205 29.0404 40.9627 29.8233C42.805 30.6063 44.3914 31.6638 45.722 32.9938C47.0548 34.3216 48.1124 35.9068 48.8992 37.743C49.6838 39.5814 50.0772 41.5055 50.0772 43.5176C50.0772 45.5297 49.6838 47.4539 48.8992 49.2922Z"
            fill="#9D5088" />
        <path d="M58.2611 28.6478H56.9648V58.3875H58.2611V28.6478Z" fill="#9D5088" />
        <path
            d="M78.5952 29.9413H90.3043H98.0322V28.6478H90.3043H78.5952H62.1484V58.3875H63.4447V48.0438H75.8803V46.7503H63.4447V45.4568H75.8803V44.1633H63.4447V42.872H75.8803V41.5785H63.4447V35.1132H78.5952H83.7801V58.3875H85.0742V35.1132H86.3704V58.3875H87.6667V35.1132H88.9629V58.3875H90.257V35.1132H90.3043H91.5532V58.3875H92.8494V35.1132H98.0322V33.8197H90.3043H78.5952H63.4447V32.5283H78.5952H90.3043H98.0322V31.2348H90.3043H78.5952H63.4447V29.9413H78.5952Z"
            fill="#9D5088" />
        <path d="M60.8509 28.6478H59.5547V58.3875H60.8509V28.6478Z" fill="#9D5088" />
        <path d="M55.6693 28.6478H54.373V58.3875H55.6693V28.6478Z" fill="#9D5088" />
        <path d="M50.0777 19.0292H0V20.3227H50.0777V19.0292Z" fill="#9D5088" />
        <path d="M50.0777 21.6162H0V22.9097H50.0777V21.6162Z" fill="#9D5088" />
        <path
            d="M34.5768 25.4945H38.3988H42.2208H46.045H49.867H50.0777V24.2031H0V25.4945H20.3226H34.5768Z"
            fill="#9D5088" />
        <path d="M98.032 60.5347H54.373V61.8282H98.032V60.5347Z" fill="#9D5088" />
        <path d="M98.032 63.1195H54.373V64.413H98.032V63.1195Z" fill="#9D5088" />
        <path d="M54.373 67H66.0735H98.032V65.7065H54.373V67Z" fill="#9D5088" />
        <path
            d="M11.6899 8.55031C10.4582 5.82818 9.22429 3.10819 7.99686 0.383919C7.95386 0.289535 7.90442 0.263794 7.80554 0.263794C7.11121 0.268084 6.41903 0.268084 5.7247 0.263794C5.63012 0.263794 5.58282 0.289535 5.54198 0.377484C4.25221 3.23261 2.96028 6.08345 1.66835 8.93643C1.1245 10.1377 0.580643 11.3411 0.0367873 12.5423C0.0195903 12.5788 -0.00835487 12.6131 0.00239326 12.6625C0.0260392 12.6625 0.0453858 12.6668 0.0647324 12.6668C0.789157 12.6668 1.51358 12.6668 2.238 12.6668C2.30894 12.6668 2.33904 12.641 2.36698 12.5788C2.57335 12.1155 2.78401 11.6521 2.99467 11.1888C3.08281 10.9936 3.17094 10.8005 3.25693 10.6053C3.27842 10.556 3.30637 10.5281 3.36226 10.5367C3.38806 10.541 3.416 10.5367 3.44395 10.5367C5.06046 10.5367 6.67698 10.5367 8.2935 10.5367C8.3365 10.5367 8.37949 10.5431 8.42248 10.5302C8.42893 10.483 8.39884 10.4487 8.38164 10.4123C8.09789 9.7816 7.81199 9.15308 7.53254 8.52242C7.49599 8.43876 7.453 8.41088 7.36057 8.41088C6.37174 8.41517 5.38076 8.41302 4.39193 8.41088C4.34894 8.41088 4.3081 8.41731 4.25435 8.40015C5.09056 6.55537 5.92676 4.71273 6.76942 2.85722C6.79521 2.91085 6.81241 2.94946 6.83176 2.98807C8.27416 6.17354 9.71441 9.35687 11.1547 12.5423C11.1955 12.6324 11.2385 12.6668 11.3417 12.6668C12.0317 12.6603 12.7196 12.6646 13.4096 12.6646C13.4505 12.6646 13.4935 12.6646 13.5558 12.6646C13.53 12.6067 13.5149 12.5702 13.4999 12.5359C12.898 11.2059 12.2961 9.87813 11.6942 8.54816L11.6899 8.55031Z"
            fill="#706E6B" />
        <path
            d="M21.5703 7.04018C21.2973 6.77848 20.992 6.55539 20.6717 6.35375C20.057 5.96763 19.4013 5.66303 18.7091 5.44208C18.3716 5.33483 18.0299 5.24473 17.6881 5.15035C17.3506 5.05811 17.0174 4.94871 16.7078 4.77925C16.4907 4.66127 16.293 4.52183 16.1231 4.3395C15.7964 3.992 15.7212 3.58443 15.8394 3.14039C15.9619 2.68563 16.2779 2.38317 16.6928 2.19226C17.3269 1.90053 17.9912 1.86835 18.6683 2.01207C19.3175 2.14936 19.8742 2.46254 20.3472 2.92159C20.3772 2.94948 20.4073 2.97736 20.4417 3.0074C20.9469 2.49686 21.4478 1.99491 21.9486 1.48652C21.738 1.30633 21.5423 1.13687 21.3209 0.997439C20.7212 0.624192 20.072 0.37107 19.3927 0.186592C18.9628 0.0686111 18.52 0.0321445 18.0771 0.00640328C17.3742 -0.0322085 16.6842 0.0299994 16.0157 0.25738C14.9881 0.604886 14.253 1.26987 13.8467 2.28021C13.6532 2.76285 13.5995 3.27124 13.6016 3.78821C13.6016 4.34165 13.7585 4.85218 14.0638 5.31552C14.3046 5.68019 14.6098 5.98265 14.958 6.2422C15.446 6.60687 15.9748 6.90075 16.5423 7.12813C16.9744 7.30188 17.4172 7.44989 17.8622 7.58933C18.1997 7.69444 18.5415 7.78453 18.8768 7.90037C19.2121 8.0162 19.5346 8.16636 19.8162 8.38516C20.0505 8.56749 20.2418 8.79058 20.3106 9.0866C20.4331 9.61001 20.2913 10.0626 19.9 10.4316C19.6528 10.6633 19.3476 10.792 19.0273 10.8821C18.5329 11.0193 18.032 11.0043 17.5333 10.9164C16.7852 10.7834 16.1253 10.4573 15.547 9.96609C15.5255 9.94893 15.5062 9.92963 15.4847 9.91247C15.4632 9.89316 15.4439 9.89316 15.4245 9.91247C15.4052 9.93177 15.3858 9.95108 15.3665 9.97038C14.9322 10.4037 14.4959 10.8391 14.0616 11.2725C14.038 11.2961 14.0144 11.3218 13.9821 11.3561C14.0015 11.3733 14.0122 11.384 14.0251 11.3947C14.0552 11.4183 14.0853 11.4419 14.1175 11.4655C14.7474 11.9332 15.4417 12.2807 16.179 12.5381C17.0045 12.8277 17.86 12.9156 18.7306 12.892C19.2487 12.877 19.7517 12.7912 20.2375 12.6089C21.1275 12.2764 21.796 11.7036 22.1958 10.8327C22.4043 10.3758 22.5075 9.89102 22.5333 9.39121C22.5505 9.03941 22.5333 8.69405 22.4258 8.35513C22.2625 7.83816 21.9572 7.41343 21.5703 7.04233V7.04018Z"
            fill="#706E6B" />
        <path
            d="M41.8842 12.538C41.8842 11.9138 41.8842 11.2874 41.8842 10.6632C41.8842 10.5259 41.8971 10.5409 41.7574 10.5388C41.7423 10.5388 41.7273 10.5388 41.7101 10.5388C40.1903 10.5388 38.6727 10.5388 37.1529 10.5388C37.0497 10.5388 36.9981 10.488 36.9981 10.3865C36.9981 7.07015 36.9981 3.75382 36.9981 0.437502C36.9981 0.40747 36.9981 0.375294 36.9981 0.345262C37.0003 0.29807 36.9788 0.283055 36.9358 0.2852C36.9121 0.2852 36.8885 0.2852 36.8648 0.2852C36.2457 0.2852 35.6267 0.2852 35.0076 0.2852C34.8506 0.2852 34.8657 0.261604 34.8657 0.428921C34.8657 2.44531 34.8657 4.45956 34.8657 6.47595C34.8657 8.49235 34.8657 10.5152 34.8657 12.5337C34.8657 12.6774 34.8506 12.6667 34.9947 12.6667C37.2453 12.6667 39.4981 12.6667 41.7488 12.6667C41.7681 12.6667 41.7875 12.6667 41.8068 12.6667C41.8584 12.671 41.8907 12.6538 41.8821 12.5959C41.8799 12.5766 41.8821 12.5573 41.8821 12.538H41.8842Z"
            fill="#706E6B" />
        <path
            d="M32.2241 6.09413C32.1575 6.04479 32.1424 6.04908 32.2004 5.96971C32.2176 5.94397 32.2348 5.91823 32.252 5.89249C32.7422 5.13098 32.927 4.29654 32.8109 3.40203C32.7142 2.65339 32.3982 1.99699 31.8866 1.44141C31.16 0.652016 30.2486 0.268043 29.1759 0.268043C27.3638 0.265898 25.5538 0.268043 23.7417 0.268043C23.5869 0.268043 23.6062 0.255173 23.6062 0.407475C23.6062 4.44669 23.6062 8.48592 23.6062 12.5251C23.6062 12.553 23.6062 12.5788 23.6062 12.6066C23.6041 12.6496 23.6213 12.671 23.6664 12.6689C23.6944 12.6689 23.7202 12.6689 23.7481 12.6689C24.3629 12.6689 24.9799 12.6689 25.5946 12.6689C25.7623 12.6689 25.7365 12.6817 25.7365 12.5251C25.7365 10.897 25.7365 9.27102 25.7365 7.64289C25.7365 7.52706 25.7236 7.5292 25.8376 7.5292C27.2585 7.5292 28.6815 7.5292 30.1024 7.5292C30.2443 7.5292 30.384 7.54636 30.5173 7.59141C31.0977 7.78661 31.461 8.17917 31.5599 8.78837C31.6286 9.21096 31.5491 9.60995 31.2783 9.95316C30.9795 10.3328 30.5882 10.5366 30.1003 10.5366C29.2361 10.5366 28.3698 10.5366 27.5057 10.5366C27.396 10.5366 27.4132 10.5238 27.3724 10.6267C27.2069 11.0364 27.0435 11.4483 26.878 11.858C26.7726 12.1197 26.6673 12.3836 26.5598 12.6496C26.6028 12.6753 26.6329 12.6667 26.663 12.6667C27.7937 12.6667 28.9223 12.6667 30.053 12.6667C30.3776 12.6667 30.6979 12.6345 31.0117 12.5487C32.4928 12.1433 33.5354 10.912 33.688 9.45764C33.746 8.89348 33.7009 8.34005 33.5053 7.80592C33.2473 7.11091 32.8195 6.54031 32.2241 6.09628V6.09413ZM29.5306 5.37338C29.4231 5.39697 29.3157 5.40555 29.206 5.40555C28.0882 5.40555 26.9704 5.40555 25.8548 5.40555C25.844 5.40555 25.8311 5.40555 25.8204 5.40555C25.7623 5.41199 25.7301 5.39483 25.7387 5.33048C25.7408 5.31117 25.7387 5.29186 25.7387 5.27256C25.7387 4.3566 25.7387 3.44064 25.7387 2.52469C25.7387 2.38955 25.7193 2.39813 25.8612 2.39813C26.4416 2.39813 27.022 2.39813 27.6024 2.39813C28.1484 2.39813 28.6923 2.39598 29.2383 2.39813C29.8058 2.40242 30.2378 2.65983 30.5151 3.14247C31.0096 4.0048 30.5732 5.146 29.5328 5.37338H29.5306Z"
            fill="#706E6B" />
    </g>
    <defs>
        <clipPath id="clip0_8506_26274">
            <rect width="98.0316" height="67" fill="white" />
        </clipPath>
    </defs>
</svg>